<mxfile host="65bd71144e">
    <diagram id="v5qkYwKlUNOBD4TkAYTq" name="Page-1">
        <mxGraphModel dx="1534" dy="843" grid="1" gridSize="10" guides="1" tooltips="1" connect="1" arrows="1" fold="1" page="1" pageScale="1" pageWidth="3300" pageHeight="4681" math="0" shadow="0">
            <root>
                <mxCell id="0"/>
                <mxCell id="1" parent="0"/>
                <mxCell id="15" value="H_cv" style="text;strokeColor=none;fillColor=none;html=1;fontSize=24;fontStyle=1;verticalAlign=middle;align=center;" vertex="1" parent="1">
                    <mxGeometry x="476.25" y="190.25" width="100" height="40" as="geometry"/>
                </mxCell>
                <mxCell id="21" value="" style="rounded=1;whiteSpace=wrap;html=1;fillColor=#f8cecc;strokeColor=#b85450;" vertex="1" parent="1">
                    <mxGeometry x="768.76" y="290" width="281.24" height="319.75" as="geometry"/>
                </mxCell>
                <mxCell id="24" value="&lt;font style=&quot;font-size: 24px;&quot;&gt;h_te&lt;/font&gt;" style="shape=parallelogram;perimeter=parallelogramPerimeter;whiteSpace=wrap;html=1;fixedSize=1;size=10;fillColor=#60a917;fontColor=#ffffff;strokeColor=#2D7600;" vertex="1" parent="1">
                    <mxGeometry x="1119" y="380.25" width="360" height="120" as="geometry"/>
                </mxCell>
                <mxCell id="25" value="" style="rounded=1;whiteSpace=wrap;html=1;fillColor=#f8cecc;strokeColor=#b85450;" vertex="1" parent="1">
                    <mxGeometry x="1492" y="269.87" width="160" height="360" as="geometry"/>
                </mxCell>
                <mxCell id="26" value="" style="rounded=0;whiteSpace=wrap;html=1;strokeColor=#6C8EBF;fillColor=#6C8EBF;" vertex="1" parent="1">
                    <mxGeometry x="1059" y="437.26" width="50" height="9.75" as="geometry"/>
                </mxCell>
                <mxCell id="27" value="&lt;font style=&quot;font-size: 42px;&quot;&gt;E&lt;/font&gt;" style="text;strokeColor=none;fillColor=none;html=1;fontSize=24;fontStyle=1;verticalAlign=middle;align=center;" vertex="1" parent="1">
                    <mxGeometry x="230" y="418" width="100" height="40" as="geometry"/>
                </mxCell>
                <mxCell id="28" value="" style="shape=curlyBracket;whiteSpace=wrap;html=1;rounded=1;labelPosition=left;verticalLabelPosition=middle;align=right;verticalAlign=middle;strokeColor=#6C8EBF;fontSize=42;fillColor=#6C8EBF;strokeWidth=4;" vertex="1" parent="1">
                    <mxGeometry x="321.25" y="228" width="40" height="420" as="geometry"/>
                </mxCell>
                <mxCell id="29" value="" style="shape=curlyBracket;whiteSpace=wrap;html=1;rounded=1;flipH=1;labelPosition=right;verticalLabelPosition=middle;align=left;verticalAlign=middle;strokeColor=#6C8EBF;strokeWidth=4;fontSize=42;fillColor=#6C8EBF;" vertex="1" parent="1">
                    <mxGeometry x="1660" y="250" width="20" height="392.75" as="geometry"/>
                </mxCell>
                <mxCell id="31" value="Cov(y, y)" style="text;strokeColor=none;fillColor=none;html=1;fontSize=24;fontStyle=1;verticalAlign=middle;align=center;strokeWidth=4;" vertex="1" parent="1">
                    <mxGeometry x="859.38" y="421.42" width="100" height="40" as="geometry"/>
                </mxCell>
                <mxCell id="32" value="Cov(y_tr, &lt;br&gt;y_te)" style="text;strokeColor=none;fillColor=none;html=1;fontSize=24;fontStyle=1;verticalAlign=middle;align=center;strokeWidth=4;" vertex="1" parent="1">
                    <mxGeometry x="1522" y="420" width="100" height="40" as="geometry"/>
                </mxCell>
                <mxCell id="34" value="" style="whiteSpace=wrap;html=1;aspect=fixed;fillColor=#dae8fc;strokeColor=#6c8ebf;" vertex="1" parent="1">
                    <mxGeometry x="680" y="560" width="80" height="80" as="geometry"/>
                </mxCell>
                <mxCell id="35" value="" style="whiteSpace=wrap;html=1;aspect=fixed;fillColor=#dae8fc;strokeColor=#6c8ebf;" vertex="1" parent="1">
                    <mxGeometry x="600" y="480" width="80" height="80" as="geometry"/>
                </mxCell>
                <mxCell id="36" value="" style="whiteSpace=wrap;html=1;aspect=fixed;fillColor=#dae8fc;strokeColor=#6c8ebf;" vertex="1" parent="1">
                    <mxGeometry x="520" y="400" width="80" height="80" as="geometry"/>
                </mxCell>
                <mxCell id="37" value="" style="whiteSpace=wrap;html=1;aspect=fixed;fillColor=#dae8fc;strokeColor=#6c8ebf;" vertex="1" parent="1">
                    <mxGeometry x="440" y="320" width="80" height="80" as="geometry"/>
                </mxCell>
                <mxCell id="38" value="" style="whiteSpace=wrap;html=1;aspect=fixed;fillColor=#dae8fc;strokeColor=#6c8ebf;" vertex="1" parent="1">
                    <mxGeometry x="360" y="240" width="80" height="80" as="geometry"/>
                </mxCell>
                <mxCell id="39" value="h_2" style="shape=document;whiteSpace=wrap;html=1;boundedLbl=1;rotation=90;size=0.031914893617021274;fillColor=#60a917;fontColor=#ffffff;strokeColor=#2D7600;" vertex="1" parent="1">
                    <mxGeometry x="605.07" y="241.56" width="75.87" height="235" as="geometry"/>
                </mxCell>
                <mxCell id="40" value="h_3" style="shape=document;whiteSpace=wrap;html=1;boundedLbl=1;rotation=90;size=0.125;fillColor=#60a917;fontColor=#ffffff;strokeColor=#2D7600;" vertex="1" parent="1">
                    <mxGeometry x="643.48" y="362.28" width="75.18" height="156.13" as="geometry"/>
                </mxCell>
                <mxCell id="41" value="h_4" style="shape=document;whiteSpace=wrap;html=1;boundedLbl=1;rotation=90;size=0.125;fillColor=#60a917;fontColor=#ffffff;strokeColor=#2D7600;" vertex="1" parent="1">
                    <mxGeometry x="681.88" y="481.88" width="73.75" height="72.5" as="geometry"/>
                </mxCell>
                <mxCell id="42" value="h_4" style="shape=document;whiteSpace=wrap;html=1;boundedLbl=1;rotation=-90;size=0.07446808510638298;fillColor=#60a917;fontColor=#ffffff;strokeColor=#2D7600;" vertex="1" parent="1">
                    <mxGeometry x="440" y="402.75" width="75.75" height="237.5" as="geometry"/>
                </mxCell>
                <mxCell id="43" value="h_3" style="shape=document;whiteSpace=wrap;html=1;boundedLbl=1;rotation=-90;size=0.052032000000000696;fillColor=#60a917;fontColor=#ffffff;strokeColor=#2D7600;align=center;" vertex="1" parent="1">
                    <mxGeometry x="401.41" y="362.35" width="75.31" height="158.13" as="geometry"/>
                </mxCell>
                <mxCell id="44" value="h_2" style="shape=document;whiteSpace=wrap;html=1;boundedLbl=1;rotation=-90;size=0.125;fillColor=#60a917;fontColor=#ffffff;strokeColor=#2D7600;" vertex="1" parent="1">
                    <mxGeometry x="361.25" y="321.88" width="73.75" height="76.25" as="geometry"/>
                </mxCell>
                <mxCell id="45" value="h_5" style="rounded=1;whiteSpace=wrap;html=1;arcSize=50;fillColor=#60a917;fontColor=#ffffff;strokeColor=#2D7600;" vertex="1" parent="1">
                    <mxGeometry x="358.76" y="570" width="311.24" height="70.25" as="geometry"/>
                </mxCell>
                <mxCell id="46" value="&lt;font color=&quot;#575757&quot;&gt;0&lt;/font&gt;" style="text;html=1;fontSize=24;fontStyle=1;verticalAlign=middle;align=center;" vertex="1" parent="1">
                    <mxGeometry x="430" y="340.25" width="100" height="40" as="geometry"/>
                </mxCell>
                <mxCell id="47" value="&lt;font color=&quot;#575757&quot;&gt;0&lt;/font&gt;" style="text;html=1;fontSize=24;fontStyle=1;verticalAlign=middle;align=center;" vertex="1" parent="1">
                    <mxGeometry x="510" y="420.25" width="100" height="40" as="geometry"/>
                </mxCell>
                <mxCell id="48" value="&lt;font color=&quot;#575757&quot;&gt;0&lt;/font&gt;" style="text;html=1;fontSize=24;fontStyle=1;verticalAlign=middle;align=center;" vertex="1" parent="1">
                    <mxGeometry x="589.5" y="500.25" width="100" height="40" as="geometry"/>
                </mxCell>
                <mxCell id="49" value="&lt;font color=&quot;#575757&quot;&gt;0&lt;/font&gt;" style="text;html=1;fontSize=24;fontStyle=1;verticalAlign=middle;align=center;" vertex="1" parent="1">
                    <mxGeometry x="668.76" y="580.25" width="100" height="40" as="geometry"/>
                </mxCell>
                <mxCell id="50" value="h_5" style="rounded=1;whiteSpace=wrap;html=1;arcSize=50;fillColor=#60a917;fontColor=#ffffff;strokeColor=#2D7600;" vertex="1" parent="1">
                    <mxGeometry x="450" y="240" width="310" height="70" as="geometry"/>
                </mxCell>
                <mxCell id="68" value="&lt;font color=&quot;#575757&quot;&gt;0&lt;/font&gt;" style="text;html=1;fontSize=24;fontStyle=1;verticalAlign=middle;align=center;" vertex="1" parent="1">
                    <mxGeometry x="348.12" y="260" width="100" height="40" as="geometry"/>
                </mxCell>
            </root>
        </mxGraphModel>
    </diagram>
</mxfile>